<?xml version="1.0" encoding="UTF-8"?>
<svg id="Layer_1" xmlns="http://www.w3.org/2000/svg" xmlns:xlink="http://www.w3.org/1999/xlink" version="1.1" viewBox="0 0 840 220">
  <!-- Generator: Adobe Illustrator 30.1.0, SVG Export Plug-In . SVG Version: 2.1.1 Build 136)  -->
  <defs>
    <style>
      .st0 {
        fill: url(#linear-gradient2);
      }

      .st1 {
        fill: url(#linear-gradient1);
      }

      .st2 {
        fill: url(#linear-gradient);
      }

      .st3 {
        fill: #fff;
      }
    </style>
    <linearGradient id="linear-gradient" x1="142.5" y1="1063" x2="142.5" y2="873" gradientTransform="translate(0 -858)" gradientUnits="userSpaceOnUse">
      <stop offset="0" stop-color="#7b5cf5"/>
      <stop offset=".5" stop-color="#38bdf8"/>
      <stop offset="1" stop-color="#c4ff40"/>
    </linearGradient>
    <linearGradient id="linear-gradient1" x1="47.5" y1="968" x2="47.5" y2="1063" gradientTransform="translate(0 -858)" gradientUnits="userSpaceOnUse">
      <stop offset="0" stop-color="#38bdf8"/>
      <stop offset="1" stop-color="#c4ff40"/>
    </linearGradient>
    <linearGradient id="linear-gradient2" x1="47.5" y1="873" x2="47.5" y2="968" gradientTransform="translate(0 -858)" gradientUnits="userSpaceOnUse">
      <stop offset="0" stop-color="#7b5cf5"/>
      <stop offset="1" stop-color="#38bdf8"/>
    </linearGradient>
  </defs>
  <g>
    <path class="st2" d="M95,15v47.5l47.5,47.5-47.5,47.5v47.5c52.4,0,95-42.6,95-95S147.4,15,95,15h0Z"/>
    <g>
      <polygon class="st1" points="0 205 95 205 95 157.5 47.5 110 0 157.5 0 205"/>
      <polygon class="st0" points="95 15 0 15 0 62.5 47.5 110 95 62.5 95 15"/>
    </g>
  </g>
  <g>
    <path class="st3" d="M250,167.7v-19h15.1v-76.6h-15.1v-19h47.1c15.4,0,27.1,3.9,35.1,11.7,8.1,7.9,12,19.4,12,34.8v21.6c0,15.4-4,26.9-12,34.8-8.1,7.9-19.7,11.7-35.1,11.7h-47.1ZM286.7,148.1h10.8c8.7,0,15.1-2.3,19.2-6.9,4-4.6,6-11,6-19.3v-22.9c0-8.4-2.1-14.8-6-19.4-4-4.5-10.5-6.8-19.2-6.8h-10.8v75.3Z"/>
    <path class="st3" d="M398.9,170c-8.1,0-15.4-1.6-21.7-4.9-6.4-3.3-11.6-8-15.3-14.2-3.7-6.2-5.6-13.6-5.6-22.4v-2.6c0-8.7,1.9-16.1,5.6-22.5,3.7-6.2,8.7-10.9,15.3-14.2,6.4-3.3,13.6-4.9,21.7-4.9s15.3,1.6,21.8,4.9c6.4,3.3,11.5,8.1,15.3,14.2,3.7,6.2,5.6,13.7,5.6,22.5v2.6c0,8.7-1.9,16.1-5.6,22.4s-8.8,10.9-15.3,14.2c-6.4,3.3-13.7,4.9-21.8,4.9h0ZM398.9,151.7c6.3,0,11.6-2.1,15.7-6.1,4.1-4.1,6.2-9.9,6.2-17.6v-1.6c0-7.6-2.1-13.5-6.1-17.6-4.1-4.1-9.4-6.1-15.8-6.1s-11.6,2.1-15.7,6.1c-4.1,4.1-6.2,9.9-6.2,17.6v1.6c0,7.6,2.1,13.5,6.2,17.6,4.1,4.1,9.4,6.1,15.7,6.1Z"/>
    <path class="st3" d="M457.2,200.4v-113.9h20.3v9.8h2.9c1.9-3.2,4.7-6,8.6-8.4,3.9-2.4,9.6-3.7,16.9-3.7s12.5,1.6,18.1,4.8c5.6,3.3,10,8,13.4,14.2s5.1,13.7,5.1,22.6v2.6c0,8.8-1.7,16.4-5.1,22.6-3.4,6.2-7.9,10.9-13.4,14.2-5.6,3.2-11.6,4.8-18.1,4.8s-9.1-.5-12.3-1.7c-3.4-1.1-6-2.6-8-4.4-2.1-1.7-3.6-3.6-4.8-5.5h-2.9v42h-20.7ZM499.7,152c6.4,0,11.8-2.1,15.9-6.1,4.1-4,6.3-10,6.3-17.9v-1.6c0-7.9-2.1-13.9-6.3-17.9-4.3-4.1-9.6-6.1-15.9-6.1s-11.7,2.1-15.8,6.1c-4.3,4.1-6.4,10-6.4,17.9v1.6c0,7.9,2.2,13.9,6.4,17.9,4.3,4.1,9.5,6.1,15.8,6.1h0Z"/>
    <path class="st3" d="M558.4,200.4v-113.9h20.3v9.8h2.9c1.9-3.2,4.8-6,8.7-8.4,3.9-2.4,9.5-3.7,16.9-3.7s12.5,1.6,18.1,4.8c5.6,3.3,10,8,13.4,14.2,3.4,6.2,5,13.7,5,22.6v2.6c0,8.8-1.7,16.4-5,22.6-3.4,6.2-7.9,10.9-13.4,14.2-5.6,3.2-11.6,4.8-18.1,4.8s-9.1-.5-12.3-1.7c-3.4-1.1-6-2.6-8-4.4-2.1-1.7-3.6-3.6-4.8-5.5h-2.9v42h-20.8ZM601,152c6.4,0,11.8-2.1,15.9-6.1,4.1-4.1,6.3-10,6.3-17.9v-1.6c0-7.9-2.2-13.9-6.4-17.9-4.3-4.1-9.6-6.1-15.8-6.1s-11.7,2.1-15.8,6.1c-4.3,4.1-6.4,10-6.4,17.9v1.6c0,7.9,2.2,13.9,6.4,17.9,4.3,4.1,9.5,6.1,15.8,6.1h0Z"/>
    <path class="st3" d="M659.8,167.7V53.2h20.6v114.6h-20.6Z"/>
    <path class="st3" d="M737.1,170c-8.1,0-15.2-1.7-21.4-5.1-6.2-3.5-10.9-8.3-14.4-14.6-3.5-6.2-5.1-13.6-5.1-22.1v-2c0-8.5,1.6-15.9,5-22.1,3.4-6.2,8.1-11.1,14.2-14.6,6.1-3.4,13.2-5.1,21.3-5.1s14.9,1.7,20.8,5.3c5.9,3.6,10.5,8.5,13.7,14.7,3.3,6.3,4.9,13.5,4.9,21.8v7.1h-59.1c.2,5.6,2.3,10.1,6.2,13.6,3.9,3.5,8.7,5.2,14.4,5.2s10-1.2,12.8-3.8c2.7-2.5,4.8-5.2,6.2-8.3l16.8,8.8c-1.5,2.8-3.7,5.9-6.7,9.3-2.9,3.4-6.8,6.2-11.6,8.5-4.8,2.3-10.9,3.5-18.3,3.5h.2,0ZM717.4,117.7h38c-.4-4.7-2.3-8.4-5.7-11.3-3.4-2.8-7.6-4.3-13-4.3s-10,1.4-13.3,4.3c-3.3,2.8-5.3,6.7-6,11.3h0Z"/>
    <path class="st3" d="M791.2,167.7v-81.2h20.3v9.2h2.9c1.2-3.3,3.2-5.7,6-7.2,2.7-1.5,6-2.3,9.7-2.3h9.8v18.3h-10.1c-5.2,0-9.6,1.4-13,4.1-3.4,2.8-5,7.1-5,12.9v46.1h-20.6Z"/>
  </g>
</svg>